<?xml version="1.0" encoding="UTF-8"?><!DOCTYPE svg PUBLIC "-//W3C//DTD SVG 1.1//EN" "http://www.w3.org/Graphics/SVG/1.1/DTD/svg11.dtd"><svg xmlns="http://www.w3.org/2000/svg"><symbol id="icon-play" viewBox="0 0 100 100">
    <path d="M50 6.25C25.84 6.25 6.25 25.84 6.25 50S25.84 93.75 50 93.75 93.75 74.16 93.75 50 74.16 6.25 50 6.25zm14.072 44.424L42.744 66.19a.783.783 0 0 1-1.24-.634V34.54a.78.78 0 0 1 1.24-.635l21.328 15.508a.772.772 0 0 1 0 1.26z"/>
</symbol><symbol id="icon-star" viewBox="0 0 50 48">
    <path d="M26.064.737l6.718 13.436c.192.385.566.652.993.716l14.857 2.243c1.079.16 1.516 1.495.737 2.264L38.667 29.937c-.31.3-.449.737-.374 1.165l2.456 14.814c.182 1.078-.95 1.9-1.922 1.399l-13.33-6.921a1.315 1.315 0 0 0-1.227 0l-13.33 6.92c-.972.503-2.104-.32-1.922-1.398l2.456-14.814a1.336 1.336 0 0 0-.374-1.165L.398 19.396c-.78-.77-.352-2.104.737-2.264l14.846-2.243c.428-.064.801-.331.994-.716L23.693.737c.491-.983 1.89-.983 2.381 0"/>
</symbol></svg>