<?xml version="1.0" standalone="no"?>
<!DOCTYPE svg PUBLIC "-//W3C//DTD SVG 20010904//EN"
 "http://www.w3.org/TR/2001/REC-SVG-20010904/DTD/svg10.dtd">
<svg version="1.0" xmlns="http://www.w3.org/2000/svg"
 width="512.000000pt" height="512.000000pt" viewBox="0 0 512.000000 512.000000"
 preserveAspectRatio="xMidYMid meet">

<g transform="translate(0.000000,512.000000) scale(0.100000,-0.100000)"
fill="#000000" stroke="none">
<path d="M1280 4150 c-813 -525 -1259 -819 -1268 -835 -16 -32 -6 -70 26 -96
37 -29 63 -21 181 55 l101 66 0 -1566 0 -1565 25 -24 24 -25 2191 0 2191 0 24
25 25 24 0 1565 0 1565 108 -69 c66 -43 119 -70 136 -70 60 0 98 82 58 128
-32 38 -2505 1626 -2537 1629 -25 3 -227 -124 -1285 -807z m2328 -40 l1031
-665 1 -1562 0 -1563 -2080 0 -2080 0 0 1563 1 1562 1037 668 c570 367 1041
666 1047 665 7 -2 476 -302 1043 -668z"/>
<path d="M985 2495 l-25 -24 0 -351 0 -351 25 -24 24 -25 271 0 271 0 24 25
c33 32 33 78 0 110 -24 25 -24 25 -240 25 l-215 0 0 295 0 296 -25 24 c-15 16
-36 25 -55 25 -19 0 -40 -9 -55 -25z"/>
<path d="M1906 2510 c-63 -16 -153 -70 -197 -117 -22 -24 -55 -74 -72 -111
-29 -61 -32 -76 -32 -163 0 -90 2 -99 37 -171 45 -91 103 -147 196 -191 61
-29 76 -32 162 -32 86 0 101 3 162 32 93 44 151 100 196 191 35 72 37 81 37
172 0 91 -2 100 -37 172 -68 136 -188 217 -336 224 -42 2 -94 -1 -116 -6z
m168 -162 c86 -26 166 -136 166 -228 0 -124 -116 -240 -240 -240 -124 0 -240
116 -240 240 0 63 23 114 75 165 70 71 145 90 239 63z"/>
<path d="M2826 2510 c-63 -16 -153 -70 -197 -117 -22 -24 -55 -74 -72 -111
-29 -61 -32 -76 -32 -163 0 -90 2 -99 37 -171 45 -91 103 -147 196 -191 61
-29 76 -32 162 -32 86 0 101 3 162 32 37 17 87 50 112 74 63 57 114 163 123
251 5 62 4 68 -20 92 l-26 26 -191 0 c-189 0 -191 0 -215 -25 -16 -15 -25 -36
-25 -55 0 -19 9 -40 25 -55 23 -24 30 -25 150 -25 149 0 152 -4 73 -83 -81
-80 -168 -98 -264 -53 -85 40 -144 127 -144 216 0 63 23 114 75 165 72 73 153
92 245 60 58 -20 96 -19 120 5 21 21 26 69 10 99 -26 49 -207 85 -304 61z"/>
<path d="M3746 2510 c-63 -16 -153 -70 -197 -117 -22 -24 -55 -74 -72 -111
-29 -61 -32 -76 -32 -163 0 -90 2 -99 37 -171 45 -91 103 -147 196 -191 61
-29 76 -32 162 -32 86 0 101 3 162 32 93 44 151 100 196 191 35 72 37 81 37
172 0 91 -2 100 -37 172 -68 136 -188 217 -336 224 -42 2 -94 -1 -116 -6z
m168 -162 c86 -26 166 -136 166 -228 0 -124 -116 -240 -240 -240 -124 0 -240
116 -240 240 0 63 23 114 75 165 70 71 145 90 239 63z"/>
</g>
</svg>
